<svg width="19" height="16" viewBox="0 0 19 16" fill="none" xmlns="http://www.w3.org/2000/svg">
<path fill-rule="evenodd" clip-rule="evenodd" d="M3.86199 2.91311H17.5112C17.9777 2.91311 18.3197 3.35211 18.2067 3.80391L16.75 9.63048C16.674 9.93446 16.4093 10.1539 16.0965 10.1723L4.6391 10.8456C4.84394 11.3243 5.31851 11.6529 5.8631 11.6529H13.8697C15.0682 11.6529 16.0432 12.628 16.0432 13.8264C16.0432 15.0249 15.0682 16 13.8697 16C12.3679 16 11.3121 14.502 11.8259 13.0868H7.90204C8.41649 14.5038 7.3584 16 5.85825 16C4.05081 16 3.03557 13.9081 4.14671 12.4891C3.53042 12.0009 3.17268 11.2825 3.11416 10.6204C2.20568 0.498541 2.24592 0.946953 2.33101 1.89506L2.33156 1.9012C2.38862 2.53699 2.46489 3.38676 2.28959 1.43385H1.48841C1.09246 1.43385 0.771484 1.11288 0.771484 0.716927C0.771484 0.320978 1.09246 0 1.48841 0H2.94504C3.31613 0 3.62591 0.28322 3.6591 0.652847L3.86199 2.91311ZM5.11859 13.8264C5.11859 14.2343 5.45042 14.5661 5.85825 14.5661C6.26611 14.5661 6.59795 14.2343 6.59795 13.8264C6.59795 13.4186 6.26611 13.0868 5.85825 13.0868C5.45042 13.0868 5.11859 13.4186 5.11859 13.8264ZM13.8696 14.5661C13.4618 14.5661 13.1299 14.2343 13.1299 13.8264C13.1299 13.4186 13.4618 13.0868 13.8696 13.0868C14.2775 13.0868 14.6093 13.4186 14.6093 13.8264C14.6093 14.2343 14.2775 14.5661 13.8696 14.5661ZM4.44611 9.42062L15.4867 8.77181L16.593 4.34693H3.99069L4.44611 9.42062Z" fill="#1D2026"/>
</svg>
